<svg width="1384" height="948" preserveAspectRatio="none" viewBox="0 0 1384 948" fill="none" xmlns="http://www.w3.org/2000/svg">
<path d="M1348.52 2H1380C1381.11 2 1382 2.86538 1382 3.96995C1381.78 250.547 1340.04 633.658 996.185 505.751C902.194 470.788 871.039 548.946 854.684 577.076C793.375 682.527 752.5 1046 428.231 795.496C316.765 709.387 100.498 336.359 100.001 943.899C100 945.004 99.1046 946 98 946H4C2.89543 946 2 945.105 2 944V4C2 2.89543 2.89543 2 4 2H98C99.1046 2 99.9997 2.85076 100.003 3.95533C101.034 355.856 379.812 989.792 780.788 490.176C996.185 221.79 1154.86 423.887 1278.55 384.757C1387.9 350.163 1347.1 95.0844 1346.52 3.91592C1346.52 2.81137 1347.41 2 1348.52 2Z" fill="#60D087" stroke="#60D087" stroke-width="3" stroke-linecap="round" stroke-linejoin="round"/>
</svg>
