<svg width="1380" height="944" preserveAspectRatio="none" viewBox="0 0 1380 944" fill="none" xmlns="http://www.w3.org/2000/svg">
<path d="M1346.52 0H1378C1379.11 0 1380 0.865378 1380 1.96995C1379.78 248.547 1338.04 631.658 994.185 503.751C900.194 468.788 869.039 546.946 852.684 575.076C791.375 680.527 750.5 1044 426.231 793.496C314.765 707.387 98.4977 334.359 98.0009 941.899C98 943.004 97.1046 944 96 944H2C0.895431 944 0 943.105 0 942V2C0 0.895431 0.89543 0 2 0H96C97.1046 0 97.9997 0.850764 98.0029 1.95533C99.0338 353.856 377.812 987.792 778.788 488.176C994.185 219.79 1152.86 421.887 1276.55 382.757C1385.9 348.163 1345.1 93.0844 1344.52 1.91592C1344.52 0.811371 1345.41 0 1346.52 0Z" fill="url(#paint0_linear_1_3405)"/>
<defs>
<linearGradient id="paint0_linear_1_3405" x1="741.5" y1="863" x2="531" y2="513" gradientUnits="userSpaceOnUse">
<stop offset="0.178439" stop-color="#64D060"/>
<stop offset="1" stop-color="#60D087" stop-opacity="0"/>
</linearGradient>
</defs>
</svg>
